<svg id="Capa_1" enable-background="new 0 0 512 512" height="512" viewBox="0 0 512 512" width="512" xmlns="http://www.w3.org/2000/svg"><g><path d="m301 377v-130h-65l20 130z" fill="#ffc34d"/><path d="m211 247h45v130h-45z" fill="#ffe14d"/><path d="m363.712 362h-107.712l-20 131.362h160.552z" fill="#733e33"/><path d="m148.288 362-32.84 131.362h140.552v-131.362z" fill="#8c624d"/><path d="m109.446 180h-49.446c-33.084 0-60-26.916-60-60s26.916-60 60-60h45v30h-45c-16.542 0-30 13.458-30 30s13.458 30 30 30h49.446z" fill="#ffe14d"/><path d="m452 180h-49.446v-30h49.446c16.542 0 30-13.458 30-30s-13.458-30-30-30h-45v-30h45c33.084 0 60 26.916 60 60s-26.916 60-60 60z" fill="#ffc34d"/><path d="m236 15 20 247h37.428c70.894 0 128.572-57.677 128.572-128.572v-118.428z" fill="#ffe14d"/><path d="m317.5 452v-30h-61.5l-10 15 10 15z" fill="#fec"/><path d="m427 512v-30h-171l-10 17.5 10 12.5z" fill="#8c624d"/><path d="m85 482h171v30h-171z" fill="#a6896b"/><path d="m194.5 422h61.5v30h-61.5z" fill="#fffbe6"/><path d="m90 15v118.428c0 70.895 57.678 128.572 128.572 128.572h37.428v-247z" fill="#ff9"/><path d="m452 0h-196l-10 15 10 15h196z" fill="#ffc34d"/><path d="m60 0h196v30h-196z" fill="#ffe14d"/></g></svg>